<svg xmlns="http://www.w3.org/2000/svg" xmlns:xlink="http://www.w3.org/1999/xlink" version="1.1" x="0px" y="0px" viewBox="0 0 100 100" style="enable-background:new 0 0 100 100;" xml:space="preserve"><path d="M94.32,45.5l-43-38c-0.76-0.67-1.89-0.67-2.65,0l-43,38C5.25,45.88,5,46.43,5,47v4c0,1.1,0.9,2,2,2h6v38c0,1.1,0.9,2,2,2h27  c1.1,0,2-0.9,2-2V73c0-3.31,2.69-6,6-6s6,2.69,6,6v18c0,1.1,0.9,2,2,2h27c1.1,0,2-0.9,2-2V53h6c1.1,0,2-0.9,2-2v-4  C95,46.43,94.75,45.88,94.32,45.5z M91,49h-6c-1.1,0-2,0.9-2,2v38H60V73c0-5.51-4.49-10-10-10c-5.51,0-10,4.49-10,10v16H17V51  c0-1.1-0.9-2-2-2H9v-1.1l41-36.23L91,47.9V49z"/></svg>